<svg id="Layer_1" data-name="Layer 1" xmlns="http://www.w3.org/2000/svg" viewBox="0 0 500 500"><path d="M375,62.5a15.63,15.63,0,1,0,0,31.25A31.27,31.27,0,0,1,406.25,125V437.5A31.27,31.27,0,0,1,375,468.75H125A31.27,31.27,0,0,1,93.75,437.5V125A31.27,31.27,0,0,1,125,93.75a15.63,15.63,0,0,0,0-31.25A62.57,62.57,0,0,0,62.5,125V437.5A62.57,62.57,0,0,0,125,500H375a62.57,62.57,0,0,0,62.5-62.5V125A62.57,62.57,0,0,0,375,62.5ZM171.87,125H328.12a15.63,15.63,0,1,0,0-31.25H303.83a62.5,62.5,0,1,0-107.66,0h-24.3a15.63,15.63,0,0,0,0,31.25ZM250,31.25A31.25,31.25,0,1,1,218.75,62.5,31.29,31.29,0,0,1,250,31.25Zm-104.79,261,62.5,62.5a15.58,15.58,0,0,0,22.08,0l125-125a15.62,15.62,0,1,0-22.08-22.09l-114,114-51.46-51.47a15.61,15.61,0,1,0-22.08,22.08Z"/></svg>